<?xml version="1.0" standalone="no"?>
<!DOCTYPE svg PUBLIC "-//W3C//DTD SVG 20010904//EN"
 "http://www.w3.org/TR/2001/REC-SVG-20010904/DTD/svg10.dtd">
<svg version="1.0" xmlns="http://www.w3.org/2000/svg"
 width="500.000000pt" height="500.000000pt" viewBox="0 0 500.000000 500.000000"
 preserveAspectRatio="xMidYMid meet">

<g transform="translate(0.000000,500.000000) scale(0.100000,-0.100000)"
fill="#000000" stroke="none">
<path d="M2320 4420 c-260 -26 -569 -124 -790 -251 -142 -81 -224 -144 -354
-269 -218 -211 -377 -462 -479 -755 -88 -254 -127 -534 -108 -773 17 -201 40
-309 109 -512 97 -283 237 -506 452 -720 449 -446 1089 -640 1710 -519 372 72
727 264 986 530 165 172 264 313 365 524 115 242 178 493 186 747 17 499 -133
933 -463 1344 -313 389 -846 643 -1379 658 -82 3 -188 1 -235 -4z m181 -178
c3 -39 8 -74 11 -77 3 -3 27 12 52 35 76 65 89 52 26 -24 -22 -26 -40 -52 -40
-57 0 -5 38 -9 85 -9 81 0 106 -9 68 -25 -10 -4 -50 -9 -90 -12 l-72 -6 46
-59 c25 -32 43 -61 40 -64 -3 -4 -30 14 -60 40 l-54 46 -7 -71 c-3 -39 -9 -76
-12 -80 -13 -21 -23 6 -29 76 -4 41 -10 75 -12 75 -3 0 -28 -20 -55 -45 -28
-25 -53 -43 -56 -40 -3 3 13 32 35 64 l40 58 -73 6 c-40 3 -78 8 -84 12 -20
12 2 25 43 25 23 0 59 3 79 6 l37 6 -40 54 c-21 29 -39 58 -39 64 0 7 26 -11
58 -39 31 -28 58 -47 59 -43 1 4 5 42 8 85 9 99 28 99 36 -1z m-237 33 c13
-35 -26 -68 -43 -37 -7 12 -5 22 6 34 20 22 29 23 37 3z m480 -10 c16 -12 17
-17 6 -30 -7 -8 -9 -15 -6 -15 4 0 4 -5 1 -11 -9 -14 -45 19 -45 41 0 32 15
37 44 15z m-606 -7 c21 -21 15 -66 -10 -74 -36 -11 -64 46 -36 74 7 7 17 12
23 12 6 0 16 -5 23 -12z m737 -8 c17 -18 17 -21 1 -45 -19 -29 -29 -31 -50 -9
-19 18 -19 16 -6 48 11 31 30 33 55 6z m-891 -36 c22 -8 21 -63 0 -71 -36 -13
-68 33 -44 62 14 17 21 18 44 9z m1044 -6 c28 -28 1 -75 -38 -63 -14 4 -20 15
-20 35 0 37 33 53 58 28z m242 -57 c0 -10 3 -33 6 -50 6 -30 6 -31 -30 -31
-40 0 -40 0 -25 69 10 46 13 50 30 41 10 -6 19 -19 19 -29z m-1442 12 c5 -17
-26 -29 -40 -15 -6 6 -7 15 -3 22 9 14 37 9 43 -7z m365 -90 c74 -192 77 -201
61 -214 -21 -17 -27 -7 -64 101 -18 52 -39 108 -47 123 -8 16 -12 35 -9 43 12
31 34 11 59 -53z m633 54 c4 -12 -40 -140 -83 -239 -15 -36 -35 -48 -47 -29
-5 7 82 244 100 272 8 13 24 11 30 -4z m114 -12 c9 -11 10 -19 2 -27 -14 -14
-32 -1 -32 23 0 23 13 25 30 4z m-984 -43 c48 -71 144 -250 144 -267 0 -37
-33 -8 -79 68 -27 45 -68 113 -91 150 -34 55 -40 70 -30 82 18 22 22 20 56
-33z m114 1 c0 -17 -5 -24 -16 -21 -27 5 -40 34 -25 52 18 21 41 3 41 -31z
m979 24 c8 -11 -8 -47 -72 -157 -81 -141 -101 -166 -113 -137 -5 14 154 307
167 307 4 0 12 -6 18 -13z m106 -8 c0 -7 -8 -15 -17 -17 -18 -3 -25 18 -11 32
10 10 28 1 28 -15z m-1396 -71 c6 -34 16 -65 22 -69 7 -4 32 -10 56 -14 55 -8
52 -28 -4 -36 -56 -7 -69 -21 -77 -79 -4 -27 -10 -52 -15 -54 -9 -6 -21 40
-21 79 0 30 -21 46 -77 56 -25 5 -49 12 -52 15 -9 9 22 24 52 24 42 0 65 16
71 50 3 16 9 44 12 60 9 47 21 35 33 -32z m85 53 c9 -15 -23 -36 -36 -23 -5 5
-7 15 -4 21 9 13 33 14 40 2z m1546 -10 c0 -11 -4 -22 -9 -25 -12 -8 -34 21
-26 34 11 17 35 11 35 -9z m-1761 -20 c8 -14 7 -22 -4 -31 -21 -18 -61 16 -44
37 16 19 37 16 48 -6z m1649 13 c16 -5 22 -14 22 -35 0 -33 -6 -36 -32 -12
-17 15 -18 14 -18 -25 0 -29 6 -48 21 -63 30 -30 8 -53 -44 -46 -26 4 -37 2
-34 -6 4 -14 50 -21 83 -13 28 7 32 39 9 82 -15 29 -7 52 14 40 17 -11 33 -85
26 -118 -13 -57 -125 -75 -160 -25 -22 32 -19 100 5 122 13 12 20 31 20 56 0
27 5 39 18 42 26 7 45 7 70 1z m-384 -23 c8 -13 -82 -211 -96 -211 -21 0 -14
30 29 120 47 97 56 110 67 91z m-754 -95 c39 -86 44 -116 20 -116 -12 0 -101
190 -94 201 15 24 35 1 74 -85z m-244 73 c10 -17 -13 -36 -27 -22 -12 12 -4
33 11 33 5 0 12 -5 16 -11z m1192 -21 c18 -18 15 -36 -8 -48 -15 -8 -21 -6
-30 11 -9 15 -8 24 1 35 14 17 21 18 37 2z m386 2 c33 -12 33 -24 -1 -39 -22
-10 -29 -9 -41 3 -13 12 -13 18 -2 30 15 19 12 18 44 6z m-1960 -31 c24 -21
24 -21 4 -41 -39 -39 -99 2 -63 42 23 25 29 25 59 -1z m2076 -33 c-7 -9 -17
-16 -22 -16 -16 0 -21 30 -7 46 11 13 14 13 27 0 13 -12 13 -18 2 -30z m-2180
-12 c0 -17 -22 -14 -28 4 -2 7 3 12 12 12 9 0 16 -7 16 -16z m2125 -44 c-5 -8
-11 -8 -17 -2 -6 6 -7 16 -3 22 5 8 11 8 17 2 6 -6 7 -16 3 -22z m173 10 c1
-10 -56 -55 -159 -125 -88 -61 -202 -139 -252 -174 -109 -75 -115 -78 -124
-55 -8 22 10 37 192 158 77 52 178 121 225 155 84 60 112 70 118 41z m-2327
-47 c44 -32 111 -80 147 -106 37 -27 78 -56 92 -65 87 -58 160 -116 160 -127
0 -28 -22 -25 -70 9 -27 19 -93 65 -147 102 -123 84 -280 202 -289 216 -5 8
11 27 24 28 1 0 39 -26 83 -57z m1669 32 c10 -12 5 -24 -30 -70 -40 -51 -70
-70 -70 -43 0 14 72 128 81 128 4 0 12 -7 19 -15z m-1470 -31 c0 -20 -34 -36
-48 -22 -17 17 -15 36 5 47 20 11 43 -3 43 -25z m395 -11 c36 -51 42 -68 24
-78 -17 -11 -109 97 -97 113 18 22 37 13 73 -35z m1473 19 c4 -28 -24 -40 -45
-19 -14 13 -14 19 -3 32 18 22 44 15 48 -13z m-772 -43 c268 -69 485 -277 572
-549 42 -130 53 -257 31 -376 -27 -154 -75 -257 -193 -415 -47 -63 -97 -135
-110 -160 -33 -59 -56 -149 -56 -216 0 -44 -5 -58 -31 -87 l-31 -36 29 -24
c22 -19 28 -32 27 -64 -1 -24 -10 -51 -21 -66 -19 -23 -19 -29 -7 -88 17 -82
17 -113 -1 -147 -18 -35 -68 -79 -100 -87 -13 -3 -29 -19 -36 -36 -17 -43 -99
-121 -151 -147 -60 -29 -174 -29 -233 -1 -51 25 -123 94 -150 144 -11 20 -26
36 -34 36 -26 0 -80 41 -103 77 -18 30 -22 53 -23 117 -1 45 2 89 7 98 6 12 3
28 -7 47 -22 43 -19 79 10 117 l25 33 -25 25 c-21 21 -25 35 -25 80 0 133 -43
234 -160 374 -90 107 -136 189 -181 323 -30 87 -32 104 -33 229 0 151 17 232
76 357 96 206 312 383 539 442 106 28 288 28 395 0z m-761 -129 c-13 -12 -20
-9 -60 30 -48 47 -52 58 -32 79 10 10 21 2 59 -41 42 -46 46 -55 33 -68z
m1219 68 c-35 -46 -84 -82 -96 -70 -8 8 2 26 37 67 42 50 50 55 63 42 13 -13
12 -18 -4 -39z m-1869 24 c0 -18 -20 -15 -23 4 -3 10 1 15 10 12 7 -3 13 -10
13 -16z m399 -11 c19 -20 14 -41 -8 -41 -17 0 -58 45 -49 53 12 13 40 7 57
-12z m2126 -16 c-1 -15 -26 -45 -38 -45 -6 0 -16 9 -22 21 -9 16 -8 24 5 39
14 16 21 17 36 7 10 -6 19 -16 19 -22z m-463 -9 c-4 -9 -16 -16 -27 -16 -25 0
-28 37 -2 43 23 5 36 -8 29 -27z m-2112 8 c15 -15 15 -18 -2 -36 -16 -18 -18
-18 -30 -2 -30 41 -3 72 32 38z m2381 -21 c-3 -8 -6 -17 -6 -19 0 -2 -7 -4
-15 -4 -15 0 -21 31 -9 43 11 11 35 -5 30 -20z m83 -44 c1 -37 28 -57 89 -65
28 -3 52 -10 52 -14 0 -5 -22 -13 -49 -20 -68 -16 -81 -28 -89 -84 -10 -69
-28 -69 -36 -2 -8 63 -18 74 -77 84 -52 9 -51 23 3 39 53 15 64 27 72 75 4 22
10 46 13 52 8 12 20 -25 22 -65z m-2354 24 c14 -70 19 -77 62 -88 60 -15 61
-21 4 -35 -52 -12 -54 -15 -66 -82 -8 -53 -20 -47 -31 15 l-9 52 -57 15 c-32
8 -58 17 -58 21 0 4 23 11 51 16 56 9 65 18 74 76 7 44 22 49 30 10z m437 -11
c18 -15 14 -42 -8 -42 -7 0 -25 11 -41 24 -24 20 -26 26 -14 40 14 17 17 16
63 -22z m1495 11 c5 -14 -126 -115 -138 -107 -20 12 -6 35 49 78 55 45 81 53
89 29z m628 -43 c0 -22 -39 -19 -43 3 -3 15 1 18 20 15 12 -2 23 -10 23 -18z
m-2767 -13 c2 -12 -3 -17 -17 -17 -15 0 -21 6 -21 21 0 25 33 22 38 -4z m367
-7 c0 -22 -29 -18 -33 3 -3 14 1 18 15 15 10 -2 18 -10 18 -18z m344 -3 c18
-21 20 -26 7 -36 -11 -9 -20 -7 -42 12 -16 14 -24 29 -20 35 11 18 30 14 55
-11z m1668 7 c3 -8 1 -20 -6 -27 -14 -14 -47 15 -37 32 10 16 36 13 43 -5z
m-1932 -64 c9 -14 -3 -47 -19 -53 -24 -9 -49 17 -42 41 8 23 49 31 61 12z
m1873 -17 c5 -33 -30 -48 -53 -23 -15 16 -16 22 -5 35 19 22 54 15 58 -12z
m461 -4 c24 -19 24 -21 9 -47 -21 -34 -48 -41 -55 -13 -3 12 -9 21 -14 21 -14
0 -10 19 9 39 22 24 22 24 51 0z m-2767 -6 c22 -20 23 -28 1 -53 -23 -27 -37
-25 -58 6 -16 24 -16 27 1 45 21 23 32 24 56 2z m543 -50 c56 -38 63 -47 45
-58 -10 -6 -105 39 -115 55 -7 11 0 40 10 40 2 0 30 -17 60 -37z m1673 7 c2
-13 -88 -70 -111 -70 -21 0 -2 32 36 59 45 31 70 35 75 11z m217 -24 c0 -14
-17 -24 -74 -43 -40 -13 -106 -39 -146 -57 -73 -34 -85 -35 -85 -10 0 17 35
35 170 90 112 46 135 50 135 20z m-2038 -22 c134 -55 163 -72 157 -89 -9 -22
-27 -19 -102 19 -37 18 -89 41 -117 51 -59 21 -70 29 -61 44 11 17 30 13 123
-25z m-509 -3 c-2 -9 -11 -17 -21 -19 -21 -4 -35 27 -17 38 19 12 42 0 38 -19z
m2747 9 c11 -17 -5 -32 -21 -19 -8 6 -14 15 -14 20 0 12 27 11 35 -1z m223
-56 c7 -5 -33 -53 -44 -54 -7 0 -14 7 -18 15 -3 8 -12 15 -21 15 -20 0 -19 8
7 35 23 24 25 23 76 -11z m67 16 c3 -6 -1 -13 -10 -16 -19 -8 -30 0 -20 15 8
14 22 14 30 1z m-2667 -59 c88 -28 176 -53 196 -56 45 -9 68 -26 57 -43 -9
-15 -105 6 -281 63 -58 18 -120 37 -137 40 -35 7 -48 19 -38 35 10 17 37 12
203 -39z m2442 29 c0 -5 -5 -12 -11 -15 -12 -8 -233 -67 -354 -95 -44 -11 -95
-23 -113 -29 -27 -8 -34 -7 -42 9 -12 22 -19 19 235 86 236 62 285 69 285 44z
m-2303 -16 c5 -15 -20 -24 -37 -14 -7 4 -9 13 -5 19 8 14 37 11 42 -5z m1943
-4 c0 -11 -6 -20 -14 -20 -18 0 -29 16 -21 30 11 18 35 11 35 -10z m-2356 -29
c16 -9 43 -33 60 -54 27 -34 31 -48 34 -110 3 -63 1 -77 -20 -107 -34 -50 -98
-83 -164 -84 -45 0 -59 4 -91 30 -63 51 -83 89 -83 156 0 39 7 72 20 98 45 88
156 121 244 71z m2921 -21 c3 -5 0 -10 -8 -10 -8 0 -17 -9 -20 -20 -3 -11 -12
-20 -21 -20 -23 0 -20 27 4 35 11 3 20 11 20 16 0 12 17 12 25 -1z m55 -10 c0
-23 -25 -27 -33 -6 -7 16 1 26 20 26 7 0 13 -9 13 -20z m-165 -56 c13 -92 14
-93 128 -118 39 -9 26 -22 -31 -30 -69 -9 -81 -21 -95 -99 -6 -37 -14 -67 -18
-67 -4 0 -10 24 -14 53 -4 28 -11 62 -16 74 -7 20 -46 38 -97 45 -39 5 -23 22
36 38 62 16 61 15 77 123 8 48 21 40 30 -19z m-95 31 c0 -9 -9 -15 -21 -15
-11 0 -29 -10 -39 -22 -15 -19 -20 -20 -34 -9 -13 11 -21 11 -48 -2 -18 -8
-58 -20 -88 -26 -30 -6 -97 -20 -149 -31 -115 -25 -121 -25 -121 -1 0 15 13
22 73 35 172 37 281 57 292 52 7 -2 17 0 22 5 5 5 23 10 41 12 18 2 35 7 39
10 12 13 33 7 33 -8z m-2387 -40 c165 -40 192 -51 178 -73 -6 -11 -26 -9 -102
12 -52 13 -130 32 -174 42 -44 9 -84 20 -89 25 -12 11 2 42 17 36 6 -2 83 -21
170 -42z m2677 -20 c10 -12 10 -18 0 -30 -12 -14 -15 -14 -31 1 -14 13 -16 20
-8 31 15 17 24 17 39 -2z m-402 -83 c3 -18 -3 -22 -45 -27 -26 -4 -77 -13
-113 -20 -36 -8 -98 -17 -139 -21 -68 -6 -73 -6 -69 12 2 13 13 20 33 22 17 2
64 10 105 19 127 27 205 41 215 39 6 -2 11 -12 13 -24z m-2229 -12 c63 -11
117 -22 119 -25 2 -2 2 -12 -2 -21 -5 -13 -14 -15 -49 -9 -23 3 -93 14 -155
24 -112 17 -141 29 -127 51 9 14 41 11 214 -20z m2728 -86 c-2 -2 -18 -1 -36
2 l-32 7 33 34 33 34 3 -36 c2 -21 1 -39 -1 -41z m-2919 -3 c-2 -9 -11 -17
-21 -19 -21 -4 -35 27 -17 38 19 12 42 0 38 -19z m2330 2 c2 -8 -5 -13 -17
-13 -12 0 -21 6 -21 16 0 18 31 15 38 -3z m102 3 c0 -16 -27 -29 -41 -20 -19
11 -9 34 16 34 15 0 25 -6 25 -14z m-2910 -12 c0 -17 -22 -14 -28 4 -2 7 3 12
12 12 9 0 16 -7 16 -16z m3339 -20 c29 -36 27 -82 -4 -114 -24 -26 -25 -28
-26 -217 -1 -172 -3 -194 -19 -208 -38 -34 -42 -13 -34 200 6 179 5 205 -10
226 -25 36 -21 86 10 114 34 32 57 31 83 -1z m-2559 -23 c0 -16 -14 -20 -122
-30 -68 -7 -145 -12 -173 -12 -27 1 -61 0 -75 -1 -19 -2 -25 2 -25 17 0 16 7
20 40 21 22 1 72 6 110 12 39 5 109 10 158 11 79 1 87 -1 87 -18z m1970 8 c63
-5 138 -10 165 -10 28 -1 53 -3 58 -6 13 -8 -14 -45 -28 -39 -8 3 -83 8 -167
11 -194 7 -242 15 -246 38 -3 14 4 17 50 17 29 0 105 -5 168 -11z m-2750 -21
c18 -11 18 -14 2 -40 -19 -33 -20 -33 -52 -8 l-25 20 25 20 c30 23 26 23 50 8z
m99 -62 c9 -10 8 -16 -4 -26 -13 -11 -19 -11 -32 2 -16 17 -10 38 11 38 8 0
19 -6 25 -14z m126 -483 c-4 -274 -9 -501 -12 -505 -2 -5 -10 -8 -18 -8 -9 0
-14 24 -19 88 -6 100 -6 903 1 915 2 4 16 7 30 7 l25 0 -7 -497z m560 461 c0
-16 -10 -20 -65 -27 -131 -15 -415 -25 -428 -14 -25 20 8 31 101 34 50 2 155
10 232 17 77 7 145 13 150 11 6 -1 10 -10 10 -21z m1825 13 c30 2 326 -17 373
-23 31 -4 47 -11 47 -20 0 -11 -17 -14 -72 -13 -70 0 -316 15 -368 22 -14 2
-35 5 -47 5 -24 2 -32 27 -10 35 6 3 23 2 37 -1 13 -3 31 -5 40 -5z m610 -3
c0 -8 -17 -30 -37 -48 -21 -18 -53 -47 -72 -63 l-34 -30 69 1 c57 1 69 -2 72
-16 3 -15 -8 -18 -90 -20 l-93 -3 -5 -262 c-5 -247 -6 -263 -25 -277 -11 -8
-23 -12 -28 -9 -5 3 -5 134 -2 291 5 244 8 288 22 297 27 17 116 88 156 122
40 36 67 42 67 17z m249 -125 c8 -97 4 -136 -15 -143 -12 -4 -14 17 -14 121 0
92 3 124 11 116 6 -6 14 -48 18 -94z m-73 -27 c2 -62 6 -117 10 -123 3 -6 -1
-18 -9 -27 -15 -17 -17 -21 -17 -42 0 -5 -4 -10 -9 -10 -5 0 -10 72 -11 161
-1 146 1 160 16 157 15 -3 18 -19 20 -116z m-3468 77 c-10 -5 -18 -17 -18 -26
0 -13 -3 -14 -12 -5 -14 14 6 42 31 42 14 -1 14 -2 -1 -11z m3282 1 c0 -5 -4
-10 -10 -10 -5 0 -10 5 -10 10 0 6 5 10 10 10 6 0 10 -4 10 -10z m-3119 -19
c27 -22 32 -80 8 -108 -12 -15 -13 -41 -6 -163 12 -206 11 -194 8 -540 -3
-301 -2 -318 18 -373 14 -36 18 -64 13 -73 -12 -21 -89 111 -142 243 l-40 100
0 377 c0 353 1 377 17 374 28 -5 32 -57 32 -429 1 -289 4 -353 17 -392 35
-102 37 -73 32 391 l-6 451 -36 34 c-41 39 -47 76 -16 107 25 25 71 26 101 1z
m694 9 c-3 -5 -17 -10 -31 -10 -14 0 -22 4 -19 10 3 6 17 10 31 10 14 0 22 -4
19 -10z m-75 -14 c0 -16 -5 -18 -90 -36 -30 -7 -65 -16 -78 -21 -35 -14 -49
-11 -55 11 -7 26 1 30 86 45 99 18 137 18 137 1z m2064 -9 c51 -13 68 -30 43
-40 -19 -7 -259 41 -272 55 -14 14 164 3 229 -15z m126 -14 c-1 -19 -19 -35
-34 -30 -26 10 -19 37 9 37 14 0 25 -3 25 -7z m-2476 -25 c22 -32 20 -75 -4
-90 -19 -12 -20 -24 -20 -189 l0 -177 30 -12 c119 -49 87 -244 -41 -257 -79
-8 -139 55 -139 146 0 31 7 49 31 76 17 19 41 38 53 41 21 5 21 8 18 171 -3
160 -4 167 -27 195 -30 36 -31 57 -4 92 27 34 81 36 103 4z m390 7 c6 -18 -1
-21 -154 -71 -58 -19 -117 -41 -132 -49 -36 -20 -60 -19 -56 2 4 22 24 31 188
86 159 53 146 51 154 32z m1840 -26 c99 -27 139 -50 121 -68 -7 -7 -55 5 -135
30 -69 22 -131 42 -137 44 -7 2 -10 11 -7 20 7 17 4 17 158 -26z m-1809 -59
c0 -17 -153 -82 -199 -84 -35 -1 -46 20 -14 29 13 3 32 11 43 16 57 27 142 57
155 56 8 -1 15 -9 15 -17z m1742 -11 c89 -28 123 -48 123 -71 0 -16 -40 -8
-135 27 -118 42 -119 43 -104 61 14 18 2 19 116 -17z m378 -1 c-4 -13 -49 -64
-102 -114 l-94 -90 2 -253 c2 -250 1 -252 -21 -276 -13 -14 -28 -25 -33 -25
-7 0 -8 103 -4 293 l7 292 32 27 c104 88 204 167 211 168 5 0 5 -10 2 -22z
m155 -8 c0 -25 -4 -30 -25 -30 -21 0 -25 5 -25 30 0 25 4 30 25 30 21 0 25 -5
25 -30z m90 0 c0 -27 -3 -30 -30 -30 -27 0 -30 3 -30 30 0 27 3 30 30 30 27 0
30 -3 30 -30z m-3300 -76 c0 -28 -9 -35 -31 -23 -24 12 -25 45 -2 58 20 11 33
-2 33 -35z m980 13 c0 -20 -87 -64 -101 -50 -15 15 -4 31 34 47 41 18 67 19
67 3z m1622 -17 c21 -22 34 -28 42 -21 9 7 19 6 34 -5 24 -17 29 -40 10 -47
-15 -5 -58 13 -58 24 0 4 -10 9 -22 13 -37 9 -90 45 -83 56 12 19 47 10 77
-20z m608 -10 c0 -25 -4 -30 -25 -30 -21 0 -25 5 -25 30 0 25 4 30 25 30 21 0
25 -5 25 -30z m90 -6 c0 -29 -3 -35 -16 -30 -9 3 -22 6 -30 6 -9 0 -14 11 -14
30 0 27 3 30 30 30 28 0 30 -3 30 -36z m280 -12 c0 -22 -17 -45 -76 -103 -43
-41 -196 -198 -342 -349 -146 -151 -293 -302 -327 -335 -33 -33 -155 -159
-271 -279 -437 -458 -408 -430 -432 -417 -21 11 -12 23 193 237 559 586 1232
1274 1246 1274 5 0 9 -13 9 -28z m-2883 -4 c32 -30 31 -87 -2 -118 l-25 -23 0
-358 c0 -317 -2 -358 -16 -363 -9 -3 -20 -4 -25 0 -5 3 -9 160 -9 365 0 346
-1 360 -20 379 -13 13 -20 33 -20 60 0 72 67 105 117 58z m171 -9 c3 -14 -35
-39 -58 -39 -17 0 -11 32 8 46 21 17 46 14 50 -7z m149 -20 c2 -8 -29 -39 -69
-69 -39 -30 -95 -75 -124 -100 l-52 -45 -1 -422 c-1 -250 -5 -423 -10 -423
-42 0 -41 -10 -41 439 l0 426 72 60 c93 78 200 155 213 151 6 -1 11 -9 12 -17z
m1563 -35 c101 -67 137 -100 123 -114 -14 -15 -46 3 -161 88 -60 44 -71 56
-62 67 7 8 17 12 24 8 6 -4 40 -26 76 -49z m158 15 c-2 -6 -8 -10 -13 -10 -5
0 -11 4 -13 10 -2 6 4 11 13 11 9 0 15 -5 13 -11z m470 -21 c-2 -25 -8 -34
-25 -36 -20 -3 -23 1 -23 32 0 32 3 36 26 36 23 0 25 -3 22 -32z m90 -6 c3
-31 2 -33 -25 -30 -24 2 -28 8 -31 36 -3 31 -2 33 25 30 24 -2 28 -8 31 -36z
m-3300 -181 c1 -113 -1 -201 -5 -197 -18 18 -33 120 -40 259 l-6 149 24 -4 24
-3 3 -204z m3009 203 c-3 -3 -12 -4 -19 -1 -8 3 -5 6 6 6 11 1 17 -2 13 -5z
m-1930 -41 c6 -16 -27 -51 -129 -134 -34 -27 -39 -29 -45 -13 -5 13 13 35 73
90 43 40 83 73 87 74 4 0 11 -8 14 -17z m1423 -43 c0 -5 23 -25 50 -45 32 -23
50 -44 48 -54 -5 -27 -21 -19 -103 55 -56 52 -76 76 -72 89 6 14 11 13 42 -11
19 -14 35 -30 35 -34z m-2100 34 c11 -12 10 -18 -3 -32 -16 -15 -18 -15 -34 0
-13 14 -14 20 -3 32 7 9 16 16 20 16 4 0 13 -7 20 -16z m2538 -16 c-2 -25 -8
-34 -25 -36 -19 -3 -23 1 -23 26 0 34 6 42 32 42 16 0 19 -6 16 -32z m80 0
c-2 -25 -8 -33 -23 -33 -15 0 -21 8 -23 33 -3 29 -1 32 23 32 24 0 26 -3 23
-32z m192 -39 c0 -11 4 -29 10 -39 8 -15 5 -23 -16 -39 -43 -33 -49 -27 -46
39 4 56 5 60 28 60 18 0 24 -5 24 -21z m263 -150 c-117 -124 -236 -246 -684
-704 -162 -165 -341 -348 -398 -407 -58 -60 -111 -108 -118 -108 -34 0 -22 32
31 86 30 31 53 61 49 67 -3 6 -2 7 4 4 6 -4 77 64 159 151 135 143 350 363
684 701 69 69 181 185 250 256 123 128 125 130 128 99 3 -28 -9 -45 -105 -145z
m-2346 150 c9 -9 -5 -32 -54 -90 -66 -79 -86 -92 -97 -64 -3 9 20 43 61 90 37
41 69 75 73 75 3 0 11 -5 17 -11z m-554 -13 c8 -21 -16 -39 -31 -24 -7 7 -12
18 -12 25 0 18 36 17 43 -1z m1886 -53 c57 -61 73 -98 44 -98 -17 0 -145 144
-138 156 13 20 36 6 94 -58z m481 17 c0 -25 -4 -30 -25 -30 -20 0 -25 5 -25
23 0 28 7 37 32 37 13 0 18 -8 18 -30z m80 0 c0 -25 -4 -30 -25 -30 -21 0 -25
5 -25 30 0 25 4 30 25 30 21 0 25 -5 25 -30z m-254 -34 c-5 -21 -137 -148
-187 -179 -18 -11 -19 -26 -19 -253 l0 -241 -25 -23 -25 -23 0 276 0 277 46
33 c26 17 83 62 128 99 44 37 82 65 85 63 2 -2 1 -15 -3 -29z m-1586 10 c0
-21 -21 -31 -30 -15 -5 7 -6 17 -4 21 9 14 34 9 34 -6z m1165 -16 c-3 -5 -10
-10 -16 -10 -5 0 -9 5 -9 10 0 6 7 10 16 10 8 0 12 -4 9 -10z m595 -50 c0 -25
-4 -30 -25 -30 -21 0 -25 5 -25 30 0 25 4 30 25 30 21 0 25 -5 25 -30z m80 0
c0 -25 -4 -30 -25 -30 -21 0 -25 5 -25 30 0 25 4 30 25 30 21 0 25 -5 25 -30z
m-2130 4 c11 -12 10 -18 -6 -35 -18 -18 -21 -18 -42 -3 -22 15 -22 17 -6 35
21 23 37 24 54 3z m1480 -26 c22 -23 40 -46 40 -53 0 -6 -18 -28 -39 -49 -38
-37 -39 -38 -59 -20 -11 11 -27 25 -36 32 -9 7 -13 19 -8 30 9 21 56 102 60
102 1 0 21 -19 42 -42z m-1160 -18 c20 -26 29 -46 26 -58 -7 -20 -46 -42 -75
-42 -22 0 -90 51 -91 67 0 15 77 73 96 73 7 0 27 -18 44 -40z m2335 -39 c-8
-38 -69 -91 -96 -84 -22 6 -22 8 -9 33 12 22 101 93 108 86 2 -3 1 -18 -3 -35z
m-600 -11 c0 -20 -6 -26 -27 -28 -25 -3 -28 0 -28 28 0 28 3 31 28 28 21 -2
27 -8 27 -28z m73 -9 c3 -29 1 -32 -20 -29 -26 3 -38 45 -16 59 21 14 33 5 36
-30z m-278 7 c0 -13 -7 -18 -25 -18 -22 0 -24 2 -14 18 7 10 18 19 25 19 8 0
14 -9 14 -19z m530 -12 c0 -16 -18 -31 -27 -22 -8 8 5 36 17 36 5 0 10 -6 10
-14z m-2315 -26 c26 -27 25 -84 -2 -112 -17 -16 -28 -19 -57 -14 -66 12 -88
85 -40 132 28 29 65 27 99 -6z m1693 -54 c-2 -26 -7 -31 -28 -31 -21 0 -26 5
-28 32 -2 24 1 32 15 35 32 7 44 -3 41 -36z m92 4 c0 -27 -3 -30 -30 -30 -27
0 -30 3 -30 30 0 27 3 30 30 30 27 0 30 -3 30 -30z m198 1 c4 -23 -11 -41 -35
-41 -8 0 -13 14 -13 36 0 31 3 35 23 32 14 -2 23 -11 25 -27z m-1851 -26 c-9
-21 -36 -30 -50 -16 -9 10 -7 17 12 32 26 21 48 12 38 -16z m2357 -16 c36 -17
51 -60 34 -96 -10 -22 -21 -29 -51 -31 -29 -2 -46 -12 -72 -40 -19 -20 -35
-44 -35 -52 0 -24 -29 -60 -48 -60 -9 0 -29 -12 -44 -27 -27 -26 -29 -26 -46
-9 -16 17 -14 20 39 69 31 29 73 73 94 99 30 39 36 52 30 77 -5 24 -1 35 19
56 28 28 43 30 80 14z m-1160 -22 c8 -12 7 -20 -1 -28 -18 -18 -58 18 -41 38
13 16 28 13 42 -10z m-1133 -7 c27 0 24 -15 -6 -28 -21 -10 -27 -9 -31 3 -4 8
-3 23 1 33 5 11 9 13 12 5 3 -7 13 -13 24 -13z m1319 -40 c0 -47 -3 -58 -14
-54 -8 3 -20 19 -26 35 -10 24 -10 33 4 54 26 39 36 30 36 -35z m180 10 c0
-27 -3 -30 -30 -30 -27 0 -30 3 -30 30 0 27 3 30 30 30 27 0 30 -3 30 -30z
m90 0 c0 -27 -3 -30 -30 -30 -27 0 -30 3 -30 30 0 27 3 30 30 30 27 0 30 -3
30 -30z m-2264 6 c15 -12 17 -18 8 -33 -16 -26 -54 -30 -54 -5 0 25 10 52 19
52 4 0 16 -6 27 -14z m98 5 c9 -14 -4 -41 -19 -41 -18 0 -28 17 -21 35 6 17
32 20 40 6z m676 -7 c11 -12 11 -18 -2 -30 -13 -13 -19 -14 -36 -3 -20 12 -20
15 -5 31 20 22 27 22 43 2z m-850 -9 c17 -20 5 -45 -20 -45 -23 0 -35 22 -26
45 7 19 30 19 46 0z m545 -15 c4 -6 -12 -35 -34 -65 l-41 -54 0 -196 0 -196
-22 3 c-23 3 -23 4 -26 211 l-3 207 53 50 c56 52 63 56 73 40z m2327 -21 c-18
-16 -37 -27 -41 -24 -5 3 -12 -6 -15 -20 -7 -29 -26 -34 -26 -6 0 12 18 31 47
50 59 39 78 40 35 0z m-897 -4 c31 -30 32 -73 3 -110 -20 -25 -21 -39 -23
-219 l-1 -191 -301 -301 -300 -301 -328 -6 c-253 -6 -333 -4 -353 5 -15 7 -27
18 -27 23 0 14 197 24 451 23 118 -1 218 3 228 9 9 5 145 136 301 292 l285
282 0 177 c0 161 -2 177 -20 197 -11 11 -23 35 -26 53 -5 26 -1 36 24 62 37
36 55 38 87 5z m275 -51 c0 -33 -2 -35 -27 -32 -23 2 -29 8 -31 36 -3 30 -1
32 27 32 29 0 31 -3 31 -36z m90 1 c0 -32 -2 -35 -30 -35 -28 0 -30 3 -30 35
0 32 2 35 30 35 28 0 30 -3 30 -35z m-2405 0 c30 -29 32 -54 5 -88 -18 -23
-20 -41 -20 -214 l-1 -188 -24 28 c-24 27 -25 32 -25 188 0 146 -2 161 -20
179 -26 26 -25 60 1 94 26 33 53 33 84 1z m238 -17 c24 -28 21 -55 -7 -82 -24
-22 -25 -26 -30 -222 -3 -109 -8 -239 -11 -287 -6 -77 -8 -87 -22 -76 -12 11
-14 53 -12 289 3 246 1 278 -14 300 -23 34 -21 57 8 86 29 29 58 26 88 -8z
m639 8 c18 -13 18 -15 2 -31 -15 -15 -18 -15 -26 -2 -4 9 -23 19 -41 23 -25 5
-28 8 -14 13 32 12 59 10 79 -3z m-125 -2 c-3 -3 -12 -4 -19 -1 -8 3 -5 6 6 6
11 1 17 -2 13 -5z m-667 -56 c0 -38 -3 -49 -10 -38 -16 25 -11 90 7 90 2 0 3
-24 3 -52z m2755 25 c0 -12 -82 -83 -96 -83 -21 0 -7 19 21 29 17 5 32 17 35
26 3 8 7 22 10 31 5 17 30 14 30 -3z m270 -15 c-4 -13 -12 -27 -18 -33 -7 -7
-8 -6 -3 3 4 6 5 12 3 12 -8 0 -49 -74 -58 -103 -7 -26 -6 -27 8 -15 14 11 14
9 -1 -20 -20 -38 -192 -227 -379 -416 -125 -126 -154 -145 -184 -115 -7 7 -59
9 -148 7 -124 -3 -137 -5 -147 -23 -16 -29 -84 -95 -97 -95 -6 0 -14 7 -18 16
-8 21 66 97 90 90 13 -3 17 2 17 22 0 15 4 32 8 37 10 14 262 18 289 4 12 -6
32 -9 45 -6 22 6 480 466 501 503 18 31 -3 25 -46 -15 -24 -23 -49 -41 -56
-41 -23 0 -10 29 24 50 19 12 38 28 42 35 15 26 113 125 123 125 7 0 9 -9 5
-22z m-2405 -18 c24 -24 25 -39 5 -66 -8 -10 -15 -34 -15 -51 0 -26 -4 -33
-20 -33 -15 0 -20 7 -20 30 0 16 -6 33 -14 37 -7 4 -19 18 -25 31 -10 19 -10
27 1 40 30 38 58 42 88 12z m1608 -9 c5 -30 -8 -42 -36 -35 -15 4 -22 14 -22
29 0 41 53 46 58 6z m-178 -114 l0 -133 -29 -28 -29 -28 -3 133 c-4 130 -3
133 21 160 14 14 28 27 33 28 4 0 7 -59 7 -132z m-1320 103 c0 -24 -26 -38
-42 -22 -16 16 -2 42 22 42 13 0 20 -7 20 -20z m99 -44 c9 -10 8 -16 -4 -26
-13 -11 -19 -11 -32 2 -16 17 -10 38 11 38 8 0 19 -6 25 -14z m1014 -8 c11
-16 2 -68 -11 -68 -4 0 -16 14 -26 30 -14 25 -15 34 -5 46 14 17 28 14 42 -8z
m-1822 -24 c10 -12 10 -20 0 -35 -9 -15 -11 -71 -9 -204 2 -101 -1 -187 -5
-192 -5 -4 -15 1 -23 11 -11 15 -14 59 -14 192 0 140 -3 174 -15 184 -18 15
-19 32 -3 48 17 17 53 15 69 -4z m2700 -4 c53 -29 56 -102 5 -135 -73 -48
-144 58 -81 120 26 27 46 31 76 15z m-1977 -15 c8 -21 -29 -39 -54 -25 -34 18
-23 40 21 40 15 0 29 -7 33 -15z m-204 -30 c0 -21 -30 -31 -40 -14 -11 17 -3
29 21 29 10 0 19 -7 19 -15z m-290 -10 c10 -12 10 -21 1 -41 -7 -15 -9 -46 -5
-78 5 -44 4 -54 -11 -60 -29 -11 -36 4 -34 65 2 48 -1 62 -17 74 -19 15 -18
15 5 35 28 24 44 25 61 5z m594 -10 c11 -8 18 -16 15 -18 -2 -1 -12 -8 -21
-16 -13 -9 -22 -10 -38 -1 -21 11 -21 12 -4 31 20 23 23 23 48 4z m1716 0 c0
-28 -24 -66 -39 -63 -25 5 -25 37 1 58 28 23 38 25 38 5z m-1862 -46 c35 -17
49 -32 65 -68 18 -40 19 -51 8 -91 -20 -74 -67 -110 -143 -110 -92 0 -162 90
-139 176 13 47 42 81 85 100 44 19 73 17 124 -7z m1932 -37 c0 -10 -56 -79
-125 -154 l-124 -136 -93 -4 c-99 -5 -120 1 -102 30 9 13 30 18 93 22 l82 5
57 61 c31 34 87 94 124 133 64 69 88 81 88 43z m-772 -5 c3 -16 -233 -283
-344 -388 -33 -30 -100 -98 -149 -151 -50 -52 -101 -100 -113 -107 -30 -16
-723 -33 -764 -18 -43 14 -34 33 18 41 26 3 167 6 313 7 146 0 301 4 344 8 78
7 79 7 115 51 19 25 133 144 253 265 119 121 236 241 260 268 43 48 61 54 67
24z m622 -16 c0 -10 -7 -24 -16 -31 -12 -11 -18 -10 -32 4 -16 16 -16 18 2 32
27 19 46 18 46 -5z m-1594 -26 c-5 -14 -9 -15 -21 -5 -12 10 -13 16 -4 27 15
18 34 1 25 -22z m1804 -4 c0 -15 -81 -101 -96 -101 -20 0 -6 29 34 73 34 35
62 48 62 28z m-305 -62 c0 -26 -29 -39 -48 -20 -7 7 -5 16 8 31 23 25 40 21
40 -11z m-1440 -4 c49 -49 17 -125 -53 -125 -46 0 -72 24 -72 67 0 41 38 83
75 83 14 0 37 -11 50 -25z m-596 -33 c68 -36 90 -126 50 -203 -23 -46 -66 -69
-129 -69 -56 0 -96 23 -120 70 -25 49 -25 83 0 137 34 76 124 105 199 65z
m701 -36 c0 -20 -19 -31 -32 -18 -6 6 -7 15 -4 21 10 16 36 13 36 -3z m1047
-22 c-9 -9 -28 6 -21 18 4 6 10 6 17 -1 6 -6 8 -13 4 -17z m623 -33 c-24 -28
-47 -51 -52 -51 -5 0 12 25 38 55 26 31 49 53 52 51 2 -3 -15 -28 -38 -55z
m-172 32 c-3 -17 -38 -26 -38 -10 0 4 0 12 0 17 0 6 9 10 21 10 14 0 19 -5 17
-17z m-1762 -40 c20 -27 17 -41 -16 -58 -37 -19 -49 -19 -56 0 -4 9 5 27 22
44 36 35 34 35 50 14z m1700 -20 c-10 -10 -19 5 -10 18 6 11 8 11 12 0 2 -7 1
-15 -2 -18z m-1935 -5 c12 -18 -10 -38 -41 -38 -33 0 -53 21 -44 45 6 13 15
16 42 11 20 -3 39 -11 43 -18z m534 -23 c27 -26 31 -49 15 -89 -8 -21 -16 -26
-46 -26 -46 0 -74 24 -74 63 0 35 34 77 62 77 10 0 30 -11 43 -25z m-214 4
c25 -13 16 -29 -17 -29 -23 0 -32 18 -17 33 8 9 11 9 34 -4z m1589 -19 c0 -11
-7 -20 -15 -20 -8 0 -15 9 -15 20 0 11 7 20 15 20 8 0 15 -9 15 -20z m190 -7
c0 -10 -42 -53 -52 -53 -12 0 -10 34 4 48 13 13 48 17 48 5z m-1692 -38 c6 -2
12 -13 12 -24 0 -17 -9 -20 -62 -25 -52 -5 -403 -3 -487 2 -23 2 -24 3 -6 22
14 16 32 20 79 21 34 1 74 4 90 8 32 6 353 3 374 -4z m387 -9 c16 -12 17 -16
6 -30 -11 -13 -34 -16 -117 -16 -77 0 -104 3 -104 13 1 28 18 36 90 40 41 1
82 4 91 5 8 1 24 -4 34 -12z m-786 -102 c2 -2 1 -10 -2 -19 -5 -13 -30 -15
-156 -15 -156 0 -181 3 -181 26 0 9 18 14 58 16 59 4 274 -2 281 -8z m145 -6
c34 -49 7 -108 -49 -108 -56 0 -87 70 -48 112 23 26 78 24 97 -4z m453 11 l28
-12 -25 -7 c-14 -4 -109 -10 -212 -13 -189 -7 -207 -4 -194 28 4 12 38 15 190
15 114 0 196 -4 213 -11z m117 -12 c15 -24 -4 -51 -40 -55 -16 -2 -34 -8 -41
-14 -13 -10 -129 -24 -273 -33 -47 -3 -104 -7 -127 -9 -36 -3 -43 -1 -43 15 0
27 12 31 129 40 267 21 299 26 332 54 34 28 47 28 63 2z m996 -1 c0 -19 -24
-27 -63 -20 -49 9 -59 13 -52 24 10 16 115 13 115 -4z m120 -7 c0 -5 -12 -9
-27 -9 -27 1 -27 1 -9 15 19 14 36 12 36 -6z m-65 -45 c0 -10 -8 -20 -18 -22
-22 -4 -35 27 -16 39 20 12 34 5 34 -17z m-597 -12 c7 -9 12 -33 10 -52 -2
-27 -9 -38 -31 -48 -24 -12 -32 -11 -60 5 -42 25 -51 82 -15 108 28 19 77 13
96 -13z m-1217 -1 c38 -1 48 -5 52 -21 7 -28 -25 -34 -136 -26 -94 7 -121 15
-130 40 -5 13 7 15 81 12 48 -2 108 -4 133 -5z m1697 -18 l35 -27 -33 -28
c-38 -31 -94 -38 -104 -13 -5 14 -29 15 -168 13 l-163 -3 -3 23 -4 23 168 -1
c162 -2 168 -1 176 19 11 30 53 27 96 -6z m-634 -69 c4 -10 -18 -42 -67 -95
-113 -125 -95 -119 -368 -118 -231 1 -307 9 -316 36 -3 8 64 10 267 6 l270 -6
92 96 c51 54 97 97 104 97 6 0 15 -7 18 -16z m460 -56 c22 -31 20 -45 -9 -64
-23 -15 -27 -15 -43 -1 -25 22 -314 24 -332 2 -18 -21 -47 -19 -60 6 -24 44
-3 49 197 49 154 0 185 2 189 15 9 22 41 18 58 -7z m-474 -101 c0 -17 -54 -69
-63 -60 -11 10 -8 18 14 47 22 28 49 35 49 13z m307 -21 c-11 -9 -58 -17 -115
-21 -53 -3 -108 -7 -121 -8 -13 -1 -26 3 -28 9 -6 17 74 31 182 32 87 1 98 0
82 -12z"/>
<path d="M2375 3743 c-146 -20 -308 -105 -420 -218 -92 -93 -144 -177 -182
-290 -24 -72 -27 -95 -27 -225 -1 -114 3 -158 18 -205 40 -130 91 -218 205
-350 94 -109 134 -203 147 -344 10 -106 1 -103 378 -99 371 4 351 -3 358 125
7 116 45 201 162 354 144 189 196 325 195 514 0 180 -51 321 -171 473 -155
195 -415 299 -663 265z m88 -87 c8 -21 -10 -32 -78 -47 -141 -30 -281 -110
-361 -206 -50 -59 -109 -172 -130 -251 -23 -88 -21 -231 6 -327 12 -43 24 -84
27 -91 4 -12 -22 -44 -36 -44 -12 0 -46 83 -66 160 -27 104 -16 282 25 387 36
96 90 180 155 246 48 49 141 117 160 117 6 0 27 9 48 20 79 43 239 65 250 36z
m85 -114 c7 -5 17 -37 23 -73 6 -35 11 -64 12 -65 1 -1 24 -11 51 -23 l50 -21
35 33 c69 64 63 64 125 2 l56 -55 -38 -58 c-36 -55 -38 -59 -25 -90 15 -36 13
-35 101 -52 l62 -13 0 -68 0 -68 -74 -12 -75 -12 -16 -49 -16 -49 42 -50 42
-51 -55 -54 -54 -55 -50 44 -50 45 -56 -26 c-61 -29 -68 -40 -68 -108 0 -48
-10 -54 -101 -54 -63 0 -61 -3 -75 93 -6 47 -8 49 -58 71 l-51 23 -53 -45 -53
-45 -59 58 -59 58 44 52 45 52 -17 41 c-9 23 -23 44 -32 46 -9 2 -39 9 -67 16
-57 13 -64 25 -64 111 l0 38 75 12 75 13 12 39 c7 25 8 44 2 52 -5 8 -22 32
-38 55 l-30 41 56 56 56 56 52 -45 51 -45 53 21 54 21 6 54 c10 83 17 91 84
91 31 0 63 -4 70 -8z m-246 -1032 c46 -32 105 -71 131 -86 59 -32 51 -34 211
71 64 42 124 75 134 73 13 -3 17 -13 16 -42 -1 -28 -16 -58 -57 -119 -80 -119
-88 -140 -100 -249 -11 -98 -11 -99 -37 -96 -25 3 -25 4 -21 83 4 94 27 169
77 243 19 30 34 55 32 57 -2 2 -42 -20 -90 -48 l-88 -52 0 -142 0 -143 -30 0
-30 0 0 144 0 144 -46 27 c-26 15 -63 38 -83 52 -40 28 -55 15 -23 -20 11 -12
35 -51 53 -87 28 -56 33 -78 37 -162 l5 -98 -30 0 -30 0 -5 83 c-5 93 -35 172
-93 242 -18 23 -44 63 -56 88 -19 39 -21 50 -11 72 7 14 20 25 31 25 11 0 57
-27 103 -60z"/>
<path d="M2362 3254 c-71 -40 -106 -85 -122 -156 -18 -84 10 -169 78 -230 52
-47 98 -61 187 -56 62 3 80 8 117 33 61 43 98 109 105 184 8 80 -14 136 -73
191 -58 53 -99 70 -171 70 -48 0 -69 -7 -121 -36z m141 -61 c-7 -2 -21 -2 -30
0 -10 3 -4 5 12 5 17 0 24 -2 18 -5z m-118 -42 c3 -5 2 -12 -3 -15 -5 -3 -9 1
-9 9 0 17 3 19 12 6z m271 -66 c7 -40 -3 -95 -18 -95 -6 0 -8 -3 -5 -7 11 -10
-23 -42 -38 -37 -9 4 -12 -1 -11 -13 3 -17 -10 -33 -27 -33 -14 0 -3 33 20 58
12 13 29 43 38 66 17 45 17 47 -23 130 -3 5 9 -1 26 -13 20 -14 33 -34 38 -56z
m-129 13 c13 -12 23 -33 23 -47 0 -31 -36 -71 -65 -71 -32 0 -65 36 -65 72 0
63 61 89 107 46z m-179 -47 c-1 -17 7 -42 16 -56 9 -14 14 -31 10 -37 -4 -7
-3 -8 4 -4 7 4 17 -7 27 -29 14 -36 16 -37 56 -30 31 5 40 4 34 -5 -5 -9 -1
-10 16 -5 19 5 21 4 9 -4 -30 -21 -104 -3 -150 36 -30 25 -30 26 -13 47 16 19
16 19 1 7 -12 -9 -18 -10 -18 -2 0 6 4 11 10 11 5 0 7 7 4 15 -4 8 -10 12 -15
9 -5 -3 -6 3 -2 12 4 11 2 15 -4 11 -6 -4 -14 0 -17 9 -10 25 -7 34 9 28 8 -4
15 -1 15 5 0 6 2 11 4 11 3 0 4 -13 4 -29z"/>
<path d="M2600 2959 c0 -5 5 -7 10 -4 6 3 10 8 10 11 0 2 -4 4 -10 4 -5 0 -10
-5 -10 -11z"/>
<path d="M2465 3076 c-25 -18 -15 -51 15 -51 20 0 26 6 28 26 4 31 -18 44 -43
25z"/>
<path d="M2364 1942 l-220 -2 -17 -29 c-24 -41 -21 -66 10 -86 l26 -18 -26
-19 c-33 -24 -35 -60 -6 -79 20 -14 20 -15 3 -46 -15 -25 -16 -35 -7 -56 15
-33 55 -59 101 -66 32 -6 38 -11 54 -55 39 -109 133 -160 250 -135 62 14 102
47 136 116 24 49 33 57 77 74 78 30 104 80 69 134 -15 22 -14 25 5 37 27 16
27 54 1 70 -24 15 -26 36 -5 44 31 12 37 41 15 83 l-20 40 -113 -2 c-62 -1
-212 -3 -333 -5z m272 -58 c25 -5 39 -33 24 -48 -5 -5 -36 -13 -67 -17 -90
-11 -372 -10 -393 1 -32 17 -43 46 -24 65 15 14 41 15 228 10 116 -3 221 -8
232 -11z m-26 -112 c40 -6 45 -10 45 -32 0 -22 -5 -26 -45 -32 -25 -3 -124 -7
-220 -7 -144 -1 -180 2 -198 15 -25 17 -28 34 -10 52 13 13 346 16 428 4z m38
-138 c5 -37 -34 -44 -247 -44 -180 0 -199 2 -215 19 -9 10 -14 25 -10 35 6 15
30 16 238 14 225 -3 231 -4 234 -24z m-48 -98 c0 -38 -28 -46 -155 -46 -116 0
-125 1 -139 22 -8 12 -13 25 -10 30 3 4 72 8 155 8 122 0 149 -3 149 -14z
m-72 -102 c9 -6 -20 -43 -38 -49 -42 -13 -120 24 -120 57 0 7 149 0 158 -8z"/>
<path d="M963 3301 c-48 -30 -67 -66 -67 -127 0 -177 251 -194 270 -18 9 85
-41 145 -131 159 -30 4 -48 1 -72 -14z m57 -44 c0 -12 -8 -30 -17 -38 -10 -9
-26 -26 -35 -37 -17 -21 -17 -22 12 -44 18 -13 30 -31 30 -45 0 -31 -15 -29
-50 5 -57 57 -23 175 53 181 4 1 7 -9 7 -22z m68 7 c36 -25 51 -64 42 -112 -4
-23 -13 -48 -20 -57 -18 -21 -47 -19 -55 5 -7 23 1 40 19 40 33 0 34 25 5 64
-27 37 -38 76 -21 76 4 0 18 -7 30 -16z m-29 -68 c17 -20 2 -46 -25 -46 -29 0
-41 24 -24 45 16 19 34 19 49 1z"/>
<path d="M4090 2960 c0 -24 29 -38 40 -20 12 19 1 40 -21 40 -12 0 -19 -7 -19
-20z"/>
<path d="M846 2761 c-8 -12 21 -34 34 -26 17 11 11 35 -9 35 -11 0 -22 -4 -25
-9z"/>
<path d="M1143 2236 c-37 -32 -39 -93 -4 -130 53 -56 141 -19 141 60 0 46 -8
63 -41 79 -40 21 -64 19 -96 -9z m95 -63 c3 -22 -22 -53 -43 -53 -18 0 -45 28
-45 46 0 8 9 23 21 35 18 18 23 19 42 6 12 -8 23 -23 25 -34z"/>
<path d="M1360 2485 c0 -20 5 -25 25 -25 20 0 25 5 25 25 0 20 -5 25 -25 25
-20 0 -25 -5 -25 -25z"/>
<path d="M1621 2086 c-15 -18 -3 -46 20 -46 13 0 19 7 19 24 0 28 -24 41 -39
22z"/>
<path d="M4122 1973 c2 -10 14 -19 26 -21 19 -3 23 1 20 15 -2 10 -14 19 -26
21 -19 3 -23 -1 -20 -15z"/>
<path d="M3047 1893 c-12 -12 -7 -41 7 -46 22 -9 41 19 26 38 -14 16 -23 19
-33 8z"/>
<path d="M1014 1835 c-9 -23 10 -40 25 -22 9 11 8 17 -4 27 -12 10 -16 9 -21
-5z"/>
<path d="M1244 1829 c-3 -6 -2 -15 4 -21 13 -13 32 -2 32 18 0 16 -26 19 -36
3z"/>
<path d="M3820 1630 c0 -11 2 -20 4 -20 2 0 11 -3 20 -6 12 -5 16 0 16 20 0
19 -5 26 -20 26 -13 0 -20 -7 -20 -20z"/>
<path d="M1715 1537 c-17 -14 -28 -36 -32 -63 -16 -118 171 -156 193 -39 7 42
-9 89 -40 110 -31 23 -90 19 -121 -8z m104 -43 c19 -25 19 -45 -2 -71 -12 -16
-59 -17 -75 -1 -29 29 -1 98 39 98 10 0 27 -12 38 -26z"/>
<path d="M2020 1394 c-11 -12 -11 -18 2 -30 16 -16 48 -9 48 10 0 13 -20 36
-31 36 -4 0 -12 -7 -19 -16z"/>
<path d="M1381 1366 c-45 -25 -66 -100 -41 -147 13 -24 61 -49 95 -49 32 0 81
46 91 85 10 40 -19 93 -61 111 -42 17 -53 17 -84 0z m79 -46 c46 -46 6 -123
-52 -101 -43 16 -50 62 -16 98 26 28 42 29 68 3z"/>
<path d="M2182 1209 c1 -12 9 -24 16 -27 9 -3 13 3 10 19 -1 12 -9 24 -16 27
-9 3 -13 -3 -10 -19z"/>
<path d="M1792 1047 c-13 -15 1 -42 17 -33 13 8 15 46 2 46 -5 0 -13 -6 -19
-13z"/>
<path d="M2810 971 c0 -12 6 -21 16 -21 9 0 14 7 12 17 -5 25 -28 28 -28 4z"/>
</g>
</svg>
